<svg xmlns="http://www.w3.org/2000/svg" xmlns:xlink="http://www.w3.org/1999/xlink" width="500" zoomAndPan="magnify" viewBox="0 0 375 374.999991" height="500" preserveAspectRatio="xMidYMid meet" version="1.0"><defs><clipPath id="id1"><path d="M 59.53125 25 L 315.28125 25 L 315.28125 375 L 59.53125 375 Z M 59.53125 25 " clip-rule="nonzero"/></clipPath></defs><path fill="rgb(0%, 0%, 0%)" d="M 142.648438 170.71875 C 122.703125 180.871094 111.953125 193.0625 103.402344 213.914062 L 111.578125 222.09375 L 223 333.597656 C 238.359375 327.285156 251.652344 316.996094 261.632812 304.019531 C 265.179688 299.40625 260.40625 291.488281 263.066406 286.25 L 258.171875 276.402344 L 199.476562 217.667969 Z M 142.648438 170.71875 " fill-opacity="1" fill-rule="nonzero"/><path fill="rgb(0%, 0%, 0%)" d="M 204.457031 59.984375 C 190.332031 59.984375 178.882812 71.441406 178.882812 85.578125 C 178.882812 85.988281 178.984375 86.371094 179 86.78125 L 187.40625 85.578125 L 227.242188 96.964844 C 228.972656 93.527344 230.03125 89.699219 230.03125 85.578125 C 230.03125 71.441406 218.582031 59.984375 204.457031 59.984375 Z M 204.457031 59.984375 " fill-opacity="1" fill-rule="nonzero"/><path fill="rgb(0%, 0%, 0%)" d="M 170.355469 59.984375 C 156.230469 59.984375 144.78125 71.441406 144.78125 85.578125 C 144.78125 87.648438 145.097656 89.628906 145.558594 91.558594 L 187.40625 85.578125 L 195.691406 87.949219 C 195.769531 87.15625 195.929688 86.386719 195.929688 85.578125 C 195.929688 71.441406 184.480469 59.984375 170.355469 59.984375 Z M 170.355469 59.984375 " fill-opacity="1" fill-rule="nonzero"/><path fill="rgb(0%, 0%, 0%)" d="M 103.578125 94.585938 L 127.730469 102.640625 L 152.941406 99.039062 C 151.175781 86.625 140.621094 77.046875 127.730469 77.046875 C 116.4375 77.046875 106.964844 84.425781 103.578125 94.585938 Z M 268.855469 89.382812 C 264.363281 82.011719 256.332031 77.046875 247.082031 77.046875 C 232.957031 77.046875 221.507812 88.503906 221.507812 102.640625 C 221.507812 103.066406 221.609375 103.46875 221.632812 103.894531 L 247.082031 111.171875 Z M 268.855469 89.382812 " fill-opacity="1" fill-rule="nonzero"/><path fill="rgb(0%, 0%, 0%)" d="M 230.03125 34.390625 C 227.898438 34.390625 226.707031 34.644531 225.769531 34.816406 C 218.179688 26.113281 207.695312 20.140625 195.929688 18.09375 L 195.929688 0.265625 L 178.882812 0.265625 L 178.882812 18.09375 C 167.117188 20.140625 156.632812 26.113281 149.042969 34.816406 C 148.105469 34.644531 146.914062 34.390625 144.78125 34.390625 C 116.648438 34.390625 93.632812 57.425781 93.632812 85.578125 C 93.632812 91.976562 96.273438 97.519531 99.683594 101.53125 C 103.09375 105.539062 107.269531 108.183594 111.109375 110.148438 C 112.472656 110.828125 113.75 111.339844 115.027344 111.851562 C 115.964844 116.460938 120.398438 119.53125 125.003906 118.679688 C 126.195312 118.421875 127.304688 117.910156 128.328125 117.226562 C 128.328125 117.226562 149.214844 102.640625 187.40625 102.640625 C 225.597656 102.640625 246.484375 117.226562 246.484375 117.226562 C 250.40625 119.957031 255.691406 119.019531 258.417969 115.179688 C 259.101562 114.15625 259.527344 113.046875 259.785156 111.851562 C 261.0625 111.339844 262.339844 110.828125 263.703125 110.148438 C 267.542969 108.183594 271.71875 105.539062 275.128906 101.53125 C 278.539062 97.519531 281.179688 91.976562 281.179688 85.578125 C 281.179688 57.425781 258.164062 34.390625 230.03125 34.390625 Z M 127.988281 98.203125 C 126.453125 97.863281 122.871094 97.007812 118.78125 94.875 C 116.222656 93.597656 114.007812 91.976562 112.640625 90.355469 C 111.277344 88.820312 110.679688 87.539062 110.679688 85.578125 C 110.679688 68.601562 122.871094 54.695312 139.070312 52.050781 C 137.277344 57.167969 136.257812 62.714844 136.257812 68.515625 C 136.257812 77.214844 138.558594 85.492188 142.394531 92.65625 C 136.597656 94.535156 131.738281 96.410156 127.988281 98.203125 Z M 215.027344 88.136719 C 206.84375 86.601562 197.636719 85.578125 187.40625 85.578125 C 177.175781 85.578125 167.96875 86.601562 159.785156 88.136719 C 155.777344 82.589844 153.304688 75.9375 153.304688 68.515625 C 153.304688 49.574219 168.480469 34.390625 187.40625 34.390625 C 206.332031 34.390625 221.507812 49.574219 221.507812 68.515625 C 221.507812 75.9375 219.035156 82.589844 215.027344 88.136719 Z M 262.171875 90.355469 C 260.804688 91.976562 258.589844 93.597656 256.03125 94.875 C 251.941406 97.007812 248.359375 97.863281 246.824219 98.203125 C 243.074219 96.410156 238.214844 94.535156 232.417969 92.65625 C 236.253906 85.492188 238.554688 77.214844 238.554688 68.515625 C 238.554688 62.714844 237.535156 57.167969 235.742188 52.050781 C 251.941406 54.695312 264.132812 68.601562 264.132812 85.578125 C 264.132812 87.539062 263.535156 88.820312 262.171875 90.355469 Z M 262.171875 90.355469 " fill-opacity="1" fill-rule="nonzero"/><g clip-path="url(#id1)"><path fill="rgb(0%, 0%, 0%)" d="M 178.882812 25.859375 L 195.929688 25.859375 L 195.929688 94.109375 L 178.882812 94.109375 Z M 187.40625 135.886719 C 248.511719 135.886719 298.230469 185.640625 298.230469 246.792969 C 298.230469 307.945312 248.511719 357.699219 187.40625 357.699219 C 126.300781 357.699219 76.582031 307.945312 76.582031 246.792969 C 76.582031 185.640625 126.300781 135.886719 187.40625 135.886719 M 187.40625 118.824219 C 116.851562 118.824219 59.53125 176.1875 59.53125 246.792969 C 59.53125 317.398438 116.851562 374.761719 187.40625 374.761719 C 257.960938 374.761719 315.28125 317.398438 315.28125 246.792969 C 315.28125 176.1875 257.960938 118.824219 187.40625 118.824219 Z M 187.40625 118.824219 " fill-opacity="1" fill-rule="nonzero"/></g><path fill="rgb(0%, 0%, 0%)" d="M 281.179688 246.792969 C 281.179688 268.375 273.933594 288.253906 261.660156 304.035156 L 249.46875 291.835938 C 258.675781 279.210938 264.132812 263.597656 264.132812 246.792969 C 264.132812 221.285156 251.597656 198.675781 232.417969 184.683594 L 187.40625 229.730469 L 142.394531 184.683594 C 123.214844 198.675781 110.679688 221.285156 110.679688 246.792969 C 110.679688 263.597656 116.136719 279.210938 125.34375 291.835938 L 113.152344 304.035156 C 100.878906 288.253906 93.632812 268.375 93.632812 246.792969 C 93.632812 216.507812 107.953125 189.546875 130.203125 172.484375 C 134.808594 168.902344 139.75 165.746094 144.953125 163.101562 L 178.863281 197.039062 L 187.40625 195.605469 L 197.378906 195.605469 L 229.859375 163.101562 C 235.0625 165.746094 240.003906 168.902344 244.609375 172.484375 C 266.859375 189.546875 281.179688 216.507812 281.179688 246.792969 Z M 281.179688 246.792969 " fill-opacity="1" fill-rule="nonzero"/><path fill="rgb(0%, 0%, 0%)" d="M 223.722656 269.058594 L 237.191406 279.808594 C 226.449219 295.933594 208.207031 306.511719 187.40625 306.511719 C 154.414062 306.511719 127.730469 279.808594 127.730469 246.792969 C 127.730469 213.777344 154.414062 187.074219 187.40625 187.074219 C 208.207031 187.074219 226.449219 197.652344 237.191406 213.777344 L 223.722656 224.527344 C 216.222656 212.324219 202.75 204.136719 187.40625 204.136719 C 163.878906 204.136719 144.78125 223.246094 144.78125 246.792969 C 144.78125 270.339844 163.878906 289.449219 187.40625 289.449219 C 202.75 289.449219 216.222656 281.257812 223.722656 269.058594 Z M 223.722656 269.058594 " fill-opacity="1" fill-rule="nonzero"/><path fill="rgb(0%, 0%, 0%)" d="M 178.882812 323.574219 L 161.832031 323.574219 L 161.832031 238.261719 L 204.457031 238.261719 L 204.457031 255.324219 L 178.882812 255.324219 Z M 178.882812 323.574219 " fill-opacity="1" fill-rule="nonzero"/><path fill="rgb(0%, 0%, 0%)" d="M 170.355469 263.855469 L 204.457031 263.855469 L 204.457031 280.917969 L 170.355469 280.917969 Z M 170.355469 263.855469 " fill-opacity="1" fill-rule="nonzero"/></svg>